<?xml version="1.0" encoding="utf-8"?>
<!-- Generator: Adobe Illustrator 16.0.3, SVG Export Plug-In . SVG Version: 6.00 Build 0)  -->
<svg version="1.2" baseProfile="tiny" id="Layer_1" xmlns="http://www.w3.org/2000/svg" xmlns:xlink="http://www.w3.org/1999/xlink"
	 x="0px" y="0px" width="194.88px" height="194.295px" viewBox="0 0 194.88 194.295" xml:space="preserve">
<path fill-rule="evenodd" fill="#F79820" d="M97.431,0c56.574-0.09,97.662,45.893,97.467,97.427
	c-0.196,51.848-42.424,97.219-98.252,96.921c-52.765-0.282-97.345-43.131-96.66-98.747C0.618,44.218,41.551-0.066,97.431,0z
	 M179.302,97.086c0.275-44.668-36.003-81.758-81.267-82.115c-45.17-0.356-82.668,35.757-82.713,81.924
	c-0.044,45.781,36.703,82.101,82,82.113C143.555,179.022,179.498,141.356,179.302,97.086z"/>
<path fill-rule="evenodd" fill="#F79820" d="M52.986,69.408c0.589-0.088,1.177-0.253,1.766-0.255
	c6.983-0.018,13.967-0.027,20.95,0.017c0.595,0.004,1.188,0.407,1.781,0.625c-0.547,0.504-1.015,1.222-1.662,1.464
	c-0.949,0.356-2.037,0.321-3.044,0.549c-1.657,0.375-2.845,1.236-2.915,3.127c-0.03,0.805-0.142,1.609-0.144,2.414
	c-0.028,10.331-0.129,20.662-0.026,30.992c0.056,5.633,0.061,11.28,1.255,16.854c1.254,5.854,4.65,9.654,10.326,11.422
	c7.43,2.313,14.87,2.248,22.248-0.196c6.262-2.074,9.538-6.674,10.255-13.057c0.468-4.167,0.706-8.38,0.731-12.573
	c0.088-14.255-0.005-28.511,0.08-42.766c0.013-2.158,0.384-4.376,0.981-6.454c1.192-4.148,4.883-6.763,9.17-6.85
	c5.132-0.104,10.264-0.26,15.396-0.289c0.705-0.003,1.413,0.597,2.12,0.917c-0.653,0.511-1.235,1.267-1.974,1.479
	c-1.425,0.41-2.945,0.474-4.413,0.752c-2.332,0.442-3.262,1.545-3.269,3.929c-0.02,6.983,0.029,13.967-0.015,20.95
	c-0.083,13.041-0.041,26.086-0.375,39.122c-0.29,11.306-7.825,21.56-20.366,23.256c-5.865,0.793-11.782,1.55-17.684,1.619
	c-6.604,0.077-13.233-0.512-19.497-3.057c-8.248-3.351-13.117-9.51-14.423-18.192c-0.741-4.931-0.839-9.985-0.884-14.987
	c-0.101-11.137,0.017-22.276,0.039-33.416c0.007-3.811-0.506-4.393-4.16-5.382c-0.876-0.237-1.634-0.909-2.447-1.38
	C52.854,69.831,52.92,69.62,52.986,69.408z"/>
</svg>
